# xmcd
# 
# Track frame offsets:
#     150
#     19910
#     29492
#     46752
#     64632
#     79202
#     98390
#     117477
#     137395
#     156197
#     173250
#     190727
#     208502
#     225320
#     241132
#     258745
#     274050
# 
# Disc length: 3900
# 
# Revision: 18
# Processed by: cddbd v1.5.2PL0 Copyright (c) Steve Scherf et al.
# Submitted via: fre:ac v1.0.31
# 
DISCID=d20f3a11
DTITLE=ハイスクール奇面組！ - うしろ髪ひかれ隊 - ハイスクール! 奇面組 テーマソング組+
DYEAR=1999
DGENRE=Anime
TTITLE0=うしろゆびさされ組/うしろゆびさされ組
TTITLE1=うしろゆびさされ組/女学生の決意
TTITLE2=おニャン子クラブ, うしろゆびさされ組/バナナの涙
TTITLE3=うしろゆびさされ組/象さんのすきゃんてぃ
TTITLE4=うしろゆびさされ組/猫舌ごころも恋のうち
TTITLE5=うしろゆびさされ組/渚の「・・・・・」
TTITLE6=うしろゆびさされ組/のっとおんりぃ★ばっとおるそう
TTITLE7=うしろゆびさされ組/技ありっ!
TTITLE8=うしろゆびさされ組/かしこ
TTITLE9=うしろゆびさされ組/ピラゴラスをぶっとばせ
TTITLE10=うしろ髪ひかれ隊/時の河を越えて
TTITLE11=うしろ髪ひかれ隊/うしろ髪ひかれたい
TTITLE12=うしろ髪ひかれ隊/あなたを知りたい
TTITLE13=息ッ子クラブ, MUSUKKO-CLUB/ちょっと辛いあいつ
TTITLE14=うしろ髪ひかれ隊/立つ鳥跡を濁さず
TTITLE15=うしろゆびさされ組/危ないサ・カ・ナ
TTITLE16=うしろゆびさされ組/わたしは知恵の輪
EXTD=
EXTT0=
EXTT1=
EXTT2=
EXTT3=
EXTT4=
EXTT5=
EXTT6=
EXTT7=
EXTT8=
EXTT9=
EXTT10=
EXTT11=
EXTT12=
EXTT13=
EXTT14=
EXTT15=
EXTT16=
PLAYORDER=
